<svg width="649" height="598" viewBox="0 0 649 598" fill="none" xmlns="http://www.w3.org/2000/svg">
<path d="M522.69 233.878C538.579 233.878 551.46 220.997 551.46 205.108C551.46 189.219 538.579 176.338 522.69 176.338C506.801 176.338 493.92 189.219 493.92 205.108C493.92 220.997 506.801 233.878 522.69 233.878Z" fill="#3B00FF" fill-opacity="0.2"/>
<path d="M556.81 176.418C565.409 176.418 572.38 169.447 572.38 160.848C572.38 152.249 565.409 145.278 556.81 145.278C548.211 145.278 541.24 152.249 541.24 160.848C541.24 169.447 548.211 176.418 556.81 176.418Z" fill="#3B00FF" fill-opacity="0.2"/>
<path d="M104.83 204.708C114.103 204.708 121.62 197.191 121.62 187.918C121.62 178.645 114.103 171.128 104.83 171.128C95.5572 171.128 88.04 178.645 88.04 187.918C88.04 197.191 95.5572 204.708 104.83 204.708Z" fill="#3B00FF" fill-opacity="0.2"/>
<path d="M75.92 214.338C81.1391 214.338 85.37 210.107 85.37 204.888C85.37 199.669 81.1391 195.438 75.92 195.438C70.7009 195.438 66.47 199.669 66.47 204.888C66.47 210.107 70.7009 214.338 75.92 214.338Z" fill="#3B00FF" fill-opacity="0.2"/>
<path d="M548.37 90.3881C540.82 105.218 528.04 123.778 510.38 145.568C474.72 189.588 422.59 242.598 363.6 294.848C332.7 322.218 301.81 347.698 272.5 370.088C256.95 381.948 241.86 392.948 227.44 402.898C217.15 409.998 207.21 416.558 197.69 422.528C173.93 437.418 153.96 447.868 138.33 453.568C133.99 455.158 124.54 458.608 115.07 458.728C108.1 458.808 101.12 457.098 96.16 451.498C84.43 438.258 94.72 416.628 103.48 401.508C114.31 382.828 131.82 359.578 155.54 332.418L172.62 347.328C124.07 402.958 113.7 428.888 113.53 436.038C118.08 436.358 137.09 434.658 192.68 398.838C200.08 394.068 207.74 388.948 215.61 383.498C221.79 379.228 228.1 374.748 234.52 370.088C270.34 344.088 309.58 312.408 348.57 277.868C403.44 229.268 452.77 179.498 487.47 137.738C529.73 86.8881 533.73 68.2181 533.96 63.6581C527.5 63.0481 504.32 68.9281 453.33 101.938L433.07 88.1081C461.09 69.4781 484.72 56.1581 503.29 48.5081C518.5 42.2581 540.02 35.4281 551.4 48.2781C563.11 61.4781 552.01 83.2381 548.37 90.3881Z" fill="url(#paint0_linear_106_27)"/>
<path d="M579.51 261.338C558.43 253.828 518.16 245.708 481.58 240.758C476.15 240.018 480.94 245.368 480.2 250.798C479.47 256.228 474.28 260.358 479.7 261.098C514.94 265.858 553.04 272.978 572.84 280.028C597.03 288.638 598.54 295.168 598.54 295.228C598.54 295.368 594.05 309.908 522.08 323.208C468.12 333.178 396.24 338.668 319.69 338.668C243.14 338.668 171.27 333.178 117.3 323.208C45.33 309.908 40.84 295.368 40.84 295.228C40.84 295.178 42.12 289.388 62.71 281.448C79.1 275.128 103.12 269.348 132.33 264.668L134.93 244.278C134.49 244.288 134.05 244.318 133.6 244.378C100.59 249.458 74.34 255.698 55.57 262.928C32.31 271.898 21 282.458 21 295.218C21 312.568 42.56 321.988 49.64 325.078C64.88 331.738 86.43 337.668 113.69 342.708C168.81 352.898 241.96 358.498 319.68 358.498C397.4 358.498 470.55 352.888 525.67 342.708C552.93 337.668 574.49 331.738 589.72 325.078C596.8 321.988 618.36 312.568 618.36 295.218C618.39 281.748 605.67 270.658 579.51 261.338Z" fill="url(#paint1_linear_106_27)"/>
<path d="M433.57 370.088C433.57 370.088 400.64 405.828 398.08 446.168H240.55C239.55 430.428 233.93 415.388 227.44 402.898C223.54 395.368 219.32 388.768 215.61 383.498C221.79 379.228 228.1 374.748 234.52 370.088H433.57Z" fill="url(#paint2_linear_106_27)"/>
<path d="M391.47 465.188H248.15C234.19 465.188 222.87 476.508 222.87 490.468C222.87 504.428 234.19 515.748 248.15 515.748H275.9C285.03 515.748 293.37 520.588 298.24 528.308C302.75 535.468 310.73 540.218 319.81 540.218C328.89 540.218 336.87 535.468 341.38 528.308C346.25 520.588 354.59 515.748 363.72 515.748H391.47C405.43 515.748 416.75 504.428 416.75 490.468C416.75 476.508 405.43 465.188 391.47 465.188Z" fill="url(#paint3_linear_106_27)"/>
<path d="M418.34 115.538C390.84 94.4881 356.49 81.9781 319.28 81.9781C229.21 81.9781 155.94 155.258 155.94 245.318C155.94 257.128 157.2 268.658 159.6 279.758C161.88 290.378 165.21 300.618 169.45 310.358C172.2 311.308 176.9 312.758 183.86 314.408C187.96 315.388 192.84 316.428 198.57 317.478C191.39 305.508 185.93 292.388 182.56 278.468C179.98 267.828 178.61 256.728 178.61 245.318C178.61 167.758 241.72 104.658 319.28 104.658C348.57 104.658 375.81 113.658 398.35 129.038C425.45 147.528 445.78 175.228 454.8 207.598L463.78 198.018L472.3 188.918L472.62 189.038C461.8 159.668 442.78 134.238 418.34 115.538ZM479.43 213.158L479.19 213.358L469.12 219.658L458.64 226.218C459.5 232.468 459.94 238.838 459.94 245.318C459.94 272.838 452 298.538 438.28 320.248C442.87 319.858 447.54 319.428 452.27 318.978C456.68 318.568 461.16 318.128 465.7 317.658C476.52 295.848 482.61 271.278 482.61 245.318C482.61 234.318 481.52 223.558 479.43 213.158Z" fill="url(#paint4_linear_106_27)"/>
<path d="M482.61 245.318C482.61 271.278 476.52 295.848 465.7 317.658C461.16 318.128 456.68 318.568 452.27 318.978C447.54 319.428 442.87 319.858 438.28 320.248C310.28 331.388 236.2 324.358 198.57 317.478C192.84 316.428 187.96 315.388 183.86 314.408C176.9 312.758 172.2 311.308 169.45 310.358C165.21 300.618 161.88 290.378 159.6 279.758C163.53 279.828 167.38 279.748 171.15 279.528C175.05 279.308 178.86 278.938 182.56 278.468C205.56 275.528 224.08 268.338 233.32 263.918C245.57 258.048 317.57 220.258 349.49 177.878C366.2 155.688 384.6 139.458 398.35 129.038C401.98 126.278 405.29 123.938 408.15 121.998C413.01 118.688 416.6 116.538 418.34 115.538C442.78 134.238 461.8 159.668 472.62 189.038L472.3 188.918L463.78 198.018L454.8 207.598L407.19 258.428L458.64 226.218L469.12 219.658L479.19 213.358L479.43 213.158C481.52 223.558 482.61 234.318 482.61 245.318Z" fill="url(#paint5_linear_106_27)"/>
<defs>
<linearGradient id="paint0_linear_106_27" x1="323.76" y1="41" x2="323.76" y2="458.731" gradientUnits="userSpaceOnUse">
<stop stop-color="#7A68FF" stop-opacity="0.36"/>
<stop offset="0.658654" stop-color="#6971F3" stop-opacity="0"/>
<stop offset="0.8125" stop-color="#6176ED" stop-opacity="0"/>
<stop offset="1" stop-color="#00ABA8" stop-opacity="0.36"/>
</linearGradient>
<linearGradient id="paint1_linear_106_27" x1="21" y1="299.594" x2="618.36" y2="299.594" gradientUnits="userSpaceOnUse">
<stop stop-color="#7A68FF" stop-opacity="0.36"/>
<stop offset="0.192308" stop-color="#4C81DE"/>
<stop offset="0.514423" stop-color="#189EB9"/>
<stop offset="1" stop-color="#00ABA8" stop-opacity="0.36"/>
</linearGradient>
<linearGradient id="paint2_linear_106_27" x1="324.59" y1="370.088" x2="324.59" y2="446.168" gradientUnits="userSpaceOnUse">
<stop stop-color="#7A68FF"/>
<stop offset="1" stop-color="#00ABA8"/>
</linearGradient>
<linearGradient id="paint3_linear_106_27" x1="319.81" y1="465.188" x2="319.81" y2="540.218" gradientUnits="userSpaceOnUse">
<stop stop-color="#00ABA8"/>
<stop offset="1" stop-color="#7A68FF"/>
</linearGradient>
<linearGradient id="paint4_linear_106_27" x1="319.275" y1="81.9781" x2="319.275" y2="320.248" gradientUnits="userSpaceOnUse">
<stop stop-color="#00ABA8"/>
<stop offset="0.822115" stop-color="#537EE3" stop-opacity="0"/>
<stop offset="1" stop-color="#6176ED" stop-opacity="0"/>
</linearGradient>
<linearGradient id="paint5_linear_106_27" x1="482.61" y1="220.81" x2="159.6" y2="220.81" gradientUnits="userSpaceOnUse">
<stop stop-color="#00ABA8"/>
<stop offset="1" stop-color="#7A68FF" stop-opacity="0.8"/>
</linearGradient>
</defs>
</svg>
