<svg width="649" height="598" viewBox="0 0 649 598" fill="none" xmlns="http://www.w3.org/2000/svg">
<path d="M522.69 233.878C538.579 233.878 551.46 220.997 551.46 205.108C551.46 189.219 538.579 176.338 522.69 176.338C506.801 176.338 493.92 189.219 493.92 205.108C493.92 220.997 506.801 233.878 522.69 233.878Z" fill="#3B00FF" fill-opacity="0.2"/>
<path d="M556.81 176.418C565.409 176.418 572.38 169.447 572.38 160.848C572.38 152.249 565.409 145.278 556.81 145.278C548.211 145.278 541.24 152.249 541.24 160.848C541.24 169.447 548.211 176.418 556.81 176.418Z" fill="#3B00FF" fill-opacity="0.2"/>
<path d="M104.83 204.708C114.103 204.708 121.62 197.191 121.62 187.918C121.62 178.645 114.103 171.128 104.83 171.128C95.5572 171.128 88.04 178.645 88.04 187.918C88.04 197.191 95.5572 204.708 104.83 204.708Z" fill="#3B00FF" fill-opacity="0.2"/>
<path d="M75.92 214.338C81.1391 214.338 85.37 210.107 85.37 204.888C85.37 199.669 81.1391 195.438 75.92 195.438C70.7009 195.438 66.47 199.669 66.47 204.888C66.47 210.107 70.7009 214.338 75.92 214.338Z" fill="#3B00FF" fill-opacity="0.2"/>
<path d="M548.37 90.3881C540.82 105.218 528.04 123.778 510.38 145.568C474.72 189.588 422.59 242.598 363.6 294.848C332.7 322.218 301.81 347.698 272.5 370.088C256.95 381.948 241.86 392.948 227.44 402.898C217.15 409.998 207.21 416.558 197.69 422.528C173.93 437.418 153.96 447.868 138.33 453.568C133.99 455.158 124.54 458.608 115.07 458.728C108.1 458.808 101.12 457.098 96.16 451.498C84.43 438.258 94.72 416.628 103.48 401.508C114.31 382.828 131.82 359.578 155.54 332.418L172.62 347.328C124.07 402.958 113.7 428.888 113.53 436.038C118.08 436.358 137.09 434.658 192.68 398.838C200.08 394.068 207.74 388.948 215.61 383.498C221.79 379.228 228.1 374.748 234.52 370.088C270.34 344.088 309.58 312.408 348.57 277.868C403.44 229.268 452.77 179.498 487.47 137.738C529.73 86.8881 533.73 68.2181 533.96 63.6581C527.5 63.0481 504.32 68.9281 453.33 101.938L433.07 88.1081C461.09 69.4781 484.72 56.1581 503.29 48.5081C518.5 42.2581 540.02 35.4281 551.4 48.2781C563.11 61.4781 552.01 83.2381 548.37 90.3881Z" fill="url(#paint0_linear_106_27)"/>
<path d="M579.51 261.338C558.43 253.828 518.16 245.708 481.58 240.758C476.15 240.018 480.94 245.368 480.2 250.798C479.47 256.228 474.28 260.358 479.7 261.098C514.94 265.858 553.04 272.978 572.84 280.028C597.03 288.638 598.54 295.168 598.54 295.228C598.54 295.368 594.05 309.908 522.08 323.208C468.12 333.178 396.24 338.668 319.69 338.668C243.14 338.668 171.27 333.178 117.3 323.208C45.33 309.908 40.84 295.368 40.84 295.228C40.84 295.178 42.12 289.388 62.71 281.448C79.1 275.128 103.12 269.348 132.33 264.668L134.93 244.278C134.49 244.288 134.05 244.318 133.6 244.378C100.59 249.458 74.34 255.698 55.57 262.928C32.31 271.898 21 282.458 21 295.218C21 312.568 42.56 321.988 49.64 325.078C64.88 331.738 86.43 337.668 113.69 342.708C168.81 352.898 241.96 358.498 319.68 358.498C397.4 358.498 470.55 352.888 525.67 342.708C552.93 337.668 574.49 331.738 589.72 325.078C596.8 321.988 618.36 312.568 618.36 295.218C618.39 281.748 605.67 270.658 579.51 261.338Z" fill="url(#paint1_linear_106_27)"/>
<path d="M433.57 370.088C433.57 370.088 400.64 405.828 398.08 446.168H240.55C239.55 430.428 233.93 415.388 227.44 402.898C223.54 395.368 219.32 388.768 215.61 383.498C221.79 379.228 228.1 374.748 234.52 370.088H433.57Z" fill="url(#paint2_linear_106_27)"/>
<path d="M391.47 465.188H248.15C234.19 465.188 222.87 476.508 222.87 490.468C222.87 504.428 234.19 515.748 248.15 515.748H275.9C285.03 515.748 293.37 520.588 298.24 528.308C302.75 535.468 310.73 540.218 319.81 540.218C328.89 540.218 336.87 535.468 341.38 528.308C346.25 520.588 354.59 515.748 363.72 515.748H391.47C405.43 515.748 416.75 504.428 416.75 490.468C416.75 476.508 405.43 465.188 391.47 465.188Z" fill="url(#paint3_linear_106_27)"/>
<path d="M418.34 115.538C390.84 94.4881 356.49 81.9781 319.28 81.9781C229.21 81.9781 155.94 155.258 155.94 245.318C155.94 257.128 157.2 268.658 159.6 279.758C161.88 290.378 165.21 300.618 169.45 310.358C172.2 311.308 176.9 312.758 183.86 314.408C187.96 315.388 192.84 316.428 198.57 317.478C191.39 305.508 185.93 292.388 182.56 278.468C179.98 267.828 178.61 256.728 178.61 245.318C178.61 167.758 241.72 104.658 319.28 104.658C348.57 104.658 375.81 113.658 398.35 129.038C425.45 147.528 445.78 175.228 454.8 207.598L463.78 198.018L472.3 188.918L472.62 189.038C461.8 159.668 442.78 134.238 418.34 115.538ZM479.43 213.158L479.19 213.358L469.12 219.658L458.64 226.218C459.5 232.468 459.94 238.838 459.94 245.318C459.94 272.838 452 298.538 438.28 320.248C442.87 319.858 447.54 319.428 452.27 318.978C456.68 318.568 461.16 318.128 465.7 317.658C476.52 295.848 482.61 271.278 482.61 245.318C482.61 234.318 481.52 223.558 479.43 213.158Z" fill="url(#paint4_linear_106_27)"/>
<path d="M482.61 245.318C482.61 271.278 476.52 295.848 465.7 317.658C461.16 318.128 456.68 318.568 452.27 318.978C447.54 319.428 442.87 319.858 438.28 320.248C310.28 331.388 236.2 324.358 198.57 317.478C192.84 316.428 187.96 315.388 183.86 314.408C176.9 312.758 172.2 311.308 169.45 310.358C165.21 300.618 161.88 290.378 159.6 279.758C163.53 279.828 167.38 279.748 171.15 279.528C175.05 279.308 178.86 278.938 182.56 278.468C205.56 275.528 224.08 268.338 233.32 263.918C245.57 258.048 317.57 220.258 349.49 177.878C366.2 155.688 384.6 139.458 398.35 129.038C401.98 126.278 405.29 123.938 408.15 121.998C413.01 118.688 416.6 116.538 418.34 115.538C442.78 134.238 461.8 159.668 472.62 189.038L472.3 188.918L463.78 198.018L454.8 207.598L407.19 258.428L458.64 226.218L469.12 219.658L479.19 213.358L479.43 213.158C481.52 223.558 482.61 234.318 482.61 245.318Z" fill="url(#paint5_linear_106_27)"/>
<g opacity="0.1">
<path d="M105.835 327.105C110.213 326.942 114.472 326.516 118.603 325.824C122.734 325.133 126.625 324.425 130.278 323.699C131.49 323.46 132.446 323.844 133.137 324.852C133.829 325.867 134.273 327.062 134.477 328.436C134.682 329.819 134.682 331.193 134.477 332.567C134.273 333.949 133.888 334.922 133.325 335.486C132.839 335.972 131.115 336.459 128.162 336.945C125.2 337.432 121.718 337.858 117.707 338.225C113.695 338.592 109.565 338.874 105.306 339.079C101.047 339.284 97.343 339.386 94.1766 339.386C92.4782 339.386 90.8481 339.267 89.3118 339.019C87.767 338.772 86.3929 338.43 85.181 337.986C83.9691 337.543 82.9705 336.971 82.2024 336.288C81.4343 335.597 81.0503 334.769 81.0503 333.796C80.9649 330.877 80.9905 327.395 81.11 323.341C81.2295 319.287 81.4514 315.054 81.7757 310.633C82.1 306.212 82.484 301.714 82.9278 297.139C83.3716 292.565 83.8155 288.246 84.2678 284.192C84.7116 280.138 85.1554 276.511 85.6077 273.311C86.0516 270.11 86.4783 267.618 86.888 265.834C87.2123 264.375 88.2877 263.299 90.1141 262.608C91.9405 261.917 93.9462 261.575 96.131 261.575C99.3742 261.575 101.926 262.079 103.787 263.094C105.647 264.11 106.543 265.305 106.458 266.679C106.296 270.409 106.108 275.069 105.912 280.659C105.707 286.249 105.545 291.984 105.425 297.865C105.306 303.745 105.263 309.318 105.306 314.584C105.331 319.85 105.511 324.024 105.835 327.105Z" fill="black"/>
<path d="M179.455 306.86C179.413 312.741 179.472 318.066 179.634 322.846C181.657 322.684 183.543 322.522 185.284 322.359C187.026 322.197 188.545 321.992 189.842 321.753C190.815 321.591 191.626 322.103 192.274 323.273C192.923 324.45 193.29 325.807 193.367 327.344C193.444 328.888 193.247 330.322 192.761 331.662C192.274 333.002 191.421 333.753 190.209 333.915C188.425 334.154 185.993 334.385 182.912 334.581C179.831 334.786 176.588 334.905 173.182 334.948C169.777 334.991 166.414 334.948 163.094 334.829C159.766 334.709 157.018 334.521 154.824 334.282C153.612 334.12 152.759 333.429 152.272 332.217C151.786 331.005 151.564 329.682 151.607 328.265C151.649 326.849 151.931 325.568 152.46 324.433C152.989 323.298 153.698 322.769 154.585 322.854L162.608 323.221C162.685 321.113 162.83 318.707 163.035 315.984C163.239 313.27 163.478 310.436 163.76 307.475C164.042 304.513 164.349 301.56 164.673 298.599C164.997 295.637 165.322 292.864 165.646 290.269C163.777 290.431 161.959 290.576 160.175 290.696C158.392 290.815 156.693 291.003 155.072 291.242C153.774 291.404 152.699 291.08 151.846 290.269C150.992 289.458 150.343 288.408 149.9 287.111C149.456 285.814 149.149 284.397 148.986 282.852C148.824 281.316 148.824 279.891 148.986 278.594C149.063 277.296 149.268 275.965 149.592 274.582C149.917 273.208 150.36 271.954 150.932 270.81C151.496 269.675 152.17 268.744 152.938 268.01C153.706 267.285 154.662 266.875 155.797 266.799C158.392 266.551 161.311 266.457 164.554 266.491C167.797 266.534 171.057 266.653 174.343 266.858C177.629 267.063 180.744 267.362 183.706 267.772C186.667 268.181 189.117 268.625 191.062 269.111C192.684 269.521 193.819 270.716 194.468 272.696C195.116 274.685 195.398 277.015 195.321 279.686C195.236 283.091 194.656 285.763 193.555 287.709C192.454 289.654 191.225 290.585 189.85 290.508L180.002 290.141C179.677 295.415 179.498 300.98 179.455 306.86Z" fill="black"/>
<path d="M270.461 314.217C270.461 317.862 269.428 321.088 267.363 323.887C265.297 326.686 262.557 329.033 259.152 330.937C255.747 332.84 251.838 334.282 247.417 335.255C242.996 336.228 238.438 336.715 233.736 336.715C231.38 336.715 229.059 336.638 226.746 336.476C224.433 336.314 222.368 336.049 220.541 335.682C218.715 335.315 217.221 334.854 216.043 334.282C214.866 333.719 214.277 333.07 214.277 332.336C214.029 327.395 213.893 322.103 213.85 316.47C213.807 310.838 213.893 305.205 214.098 299.572C214.302 293.939 214.601 288.468 215.011 283.16C215.412 277.851 215.941 273.003 216.59 268.634C216.752 267.584 217.503 266.628 218.843 265.774C220.183 264.921 221.967 264.195 224.194 263.59C226.422 262.984 228.974 262.514 231.85 262.19C234.726 261.866 237.79 261.703 241.033 261.703C244.677 261.703 248.185 261.985 251.548 262.557C254.91 263.129 257.889 264.033 260.484 265.296C263.078 266.551 265.143 268.198 266.68 270.221C268.216 272.252 268.993 274.761 268.993 277.757C268.993 280.266 268.489 282.519 267.473 284.508C266.458 286.497 265.348 288.28 264.128 289.859C262.907 291.438 261.798 292.795 260.782 293.93C259.767 295.065 259.263 296.038 259.263 296.849C259.263 297.66 259.852 298.513 261.03 299.401C262.208 300.297 263.479 301.39 264.862 302.687C266.236 303.984 267.516 305.563 268.694 307.432C269.872 309.276 270.461 311.537 270.461 314.217ZM238.362 322.846C240.47 323.085 242.535 322.965 244.558 322.479C246.581 321.992 248.39 321.224 249.969 320.166C251.548 319.116 252.802 317.853 253.741 316.394C254.671 314.934 255.141 313.313 255.141 311.529C255.141 309.668 254.612 308.106 253.562 306.852C252.504 305.597 251.377 304.462 250.157 303.447C248.945 302.431 247.801 301.398 246.751 300.348C245.693 299.299 245.172 298.078 245.172 296.704C245.172 295.654 245.633 294.553 246.572 293.418C247.502 292.283 248.518 291.071 249.61 289.774C250.703 288.477 251.718 287.06 252.649 285.515C253.579 283.979 254.048 282.229 254.048 280.283C254.048 278.423 253.417 277.04 252.162 276.153C250.908 275.265 249.406 274.676 247.665 274.386C245.923 274.104 244.08 274.062 242.134 274.266C240.188 274.471 238.524 274.736 237.15 275.06C236.988 282.596 236.988 290.542 237.15 298.889C237.312 307.244 237.713 315.233 238.362 322.846Z" fill="black"/>
<path d="M341.947 269.956C343.569 270.528 344.687 271.8 345.293 273.788C345.899 275.777 346.121 278.107 345.958 280.778C345.796 284.184 345.105 286.855 343.893 288.801C342.681 290.747 341.384 291.643 340.001 291.472C334.812 290.986 329.444 290.585 323.888 290.26C318.332 289.936 312.963 289.731 307.774 289.654C307.288 294.033 307.049 298.368 307.049 302.661C311.265 302.26 315.396 301.91 319.45 301.629C323.504 301.347 327.029 301.202 330.024 301.202C331.236 301.202 332.107 301.791 332.636 302.969C333.165 304.146 333.43 305.461 333.43 306.92C333.43 308.38 333.165 309.694 332.636 310.872C332.107 312.05 331.398 312.638 330.511 312.638C326.866 312.638 323.111 312.698 319.262 312.818C315.413 312.937 311.342 313.202 307.04 313.611L307.407 322.607C309.84 322.53 312.374 322.368 315.003 322.12C317.632 321.881 320.235 321.617 322.787 321.327C325.339 321.045 327.771 320.721 330.084 320.354C332.397 319.987 334.479 319.603 336.348 319.202C337.56 318.963 338.516 319.347 339.207 320.354C339.899 321.369 340.343 322.564 340.547 323.938C340.752 325.321 340.752 326.712 340.547 328.129C340.343 329.546 339.959 330.501 339.395 330.988C338.986 331.398 337.791 331.756 335.811 332.08C333.822 332.405 331.449 332.712 328.701 332.994C325.945 333.275 322.94 333.523 319.706 333.719C316.463 333.924 313.399 334.103 310.522 334.265C307.646 334.427 305.094 334.547 302.858 334.632C300.631 334.718 299.154 334.718 298.42 334.632C296.15 334.47 294.366 334.086 293.069 333.48C291.772 332.874 291.004 331.884 290.756 330.501C290.594 329.691 290.517 328.351 290.517 326.49C290.517 324.63 290.577 322.462 290.696 319.987C290.816 317.512 290.978 314.857 291.183 312.024C291.388 309.19 291.61 306.391 291.848 303.634C292.096 300.878 292.352 298.326 292.642 295.97C292.924 293.623 293.231 291.635 293.555 290.013C292.745 290.098 291.977 290.175 291.243 290.26C290.517 290.346 289.826 290.423 289.177 290.499C288.204 290.662 287.436 290.26 286.864 289.287C286.292 288.315 285.874 287.137 285.584 285.763C285.302 284.389 285.14 282.946 285.098 281.444C285.055 279.942 285.038 278.704 285.038 277.74C285.038 276.776 285.115 275.632 285.285 274.335C285.448 273.037 285.729 271.783 286.139 270.562C286.54 269.35 287.095 268.309 287.778 267.464C288.469 266.611 289.382 266.15 290.517 266.065C292.378 265.988 294.75 265.945 297.626 265.945C300.503 265.945 303.601 266.005 306.929 266.124C310.249 266.244 313.68 266.432 317.205 266.671C320.73 266.91 324.076 267.2 327.233 267.524C330.391 267.848 333.267 268.215 335.862 268.616C338.465 269.026 340.496 269.47 341.947 269.956Z" fill="black"/>
<path d="M419.28 329.418C420.005 330.228 420.048 331.261 419.399 332.516C418.751 333.77 417.821 334.888 416.6 335.861C415.388 336.834 414.065 337.5 412.649 337.867C411.232 338.234 410.071 337.927 409.184 336.954C406.913 334.359 404.464 331.218 401.827 327.531C399.189 323.844 396.458 319.85 393.616 315.557C392.481 315.643 391.346 315.719 390.211 315.805C389.076 315.89 387.941 315.924 386.805 315.924C386.968 319.005 387.147 322.001 387.352 324.92C387.557 327.839 387.736 330.553 387.898 333.062C387.975 334.12 387.531 334.991 386.558 335.674C385.585 336.365 384.407 336.885 383.033 337.252C381.651 337.619 380.191 337.858 378.655 337.978C377.11 338.097 375.855 338.157 374.883 338.157C373.91 338.157 372.732 338.114 371.358 338.038C369.975 337.952 368.644 337.73 367.346 337.372C366.049 337.005 364.931 336.484 364.001 335.793C363.071 335.102 362.558 334.154 362.482 332.934C362.234 327.992 362.072 322.846 361.995 317.495C361.91 312.143 361.995 306.818 362.243 301.509C362.49 296.201 362.849 291.054 363.335 286.07C363.822 281.086 364.47 276.4 365.281 272.03C365.443 271.057 366.271 270.187 367.773 269.419C369.275 268.651 371.153 267.976 373.423 267.413C375.693 266.85 378.245 266.423 381.079 266.133C383.912 265.851 386.797 265.706 389.707 265.706C398.788 265.706 405.752 267.959 410.617 272.457C415.482 276.955 417.914 283.706 417.914 292.701C417.914 298.053 416.924 302.303 414.936 305.469C412.947 308.627 410.011 311.025 406.119 312.638C408.39 315.796 410.694 318.903 413.05 321.941C415.431 324.98 417.496 327.472 419.28 329.418ZM386.208 302.303C388.393 302.542 390.501 302.525 392.532 302.243C394.555 301.961 396.339 301.39 397.883 300.545C399.42 299.691 400.64 298.496 401.528 296.96C402.415 295.424 402.868 293.478 402.868 291.122C402.868 286.829 401.895 283.663 399.949 281.64C398.003 279.618 394.922 278.602 390.706 278.602C390.057 278.602 389.229 278.662 388.214 278.781C387.198 278.901 386.413 279.046 385.841 279.208C385.756 282.537 385.756 286.155 385.841 290.09C385.926 294.016 386.046 298.087 386.208 302.303Z" fill="black"/>
<path d="M484.809 263.641C486.431 264.05 487.566 265.245 488.215 267.225C488.863 269.214 489.145 271.544 489.068 274.215C488.983 277.621 488.402 280.292 487.301 282.238C486.2 284.184 484.971 285.114 483.597 285.037C481.651 284.875 479.398 284.773 476.846 284.73C474.295 284.687 471.598 284.67 468.764 284.67C468.44 288.485 468.192 292.753 468.03 297.498C467.868 302.243 467.766 306.903 467.723 311.478C467.68 316.061 467.723 320.311 467.842 324.246C467.962 328.18 468.15 331.278 468.389 333.548C468.465 335.008 467.663 336.058 465.956 336.706C464.258 337.355 462.389 337.722 460.366 337.799C459.393 337.799 458.403 337.739 457.387 337.619C456.372 337.5 455.424 337.278 454.528 336.954C453.632 336.629 452.89 336.186 452.275 335.614C451.669 335.05 451.319 334.316 451.242 333.429C450.995 331.159 450.935 327.958 451.063 323.827C451.191 319.697 451.387 315.301 451.669 310.633C451.951 305.973 452.318 301.33 452.762 296.713C453.205 292.095 453.632 288.118 454.042 284.798C450.235 284.884 446.685 284.977 443.408 285.105C440.13 285.233 437.467 285.455 435.445 285.771C434.147 285.933 433.072 285.609 432.219 284.798C431.365 283.987 430.716 282.938 430.273 281.64C429.829 280.343 429.522 278.926 429.359 277.382C429.197 275.845 429.197 274.42 429.359 273.123C429.436 271.825 429.641 270.494 429.965 269.111C430.29 267.737 430.734 266.483 431.305 265.339C431.869 264.204 432.543 263.274 433.311 262.54C434.079 261.814 435.035 261.405 436.17 261.328C437.869 261.166 440.079 261.063 442.793 261.021C445.507 260.978 448.443 261.003 451.609 261.08C454.767 261.166 458.036 261.26 461.399 261.388C464.761 261.507 467.962 261.695 471 261.934C474.039 262.181 476.778 262.437 479.211 262.727C481.651 263.009 483.512 263.316 484.809 263.641Z" fill="black"/>
<path d="M555.937 269.956C557.559 270.528 558.677 271.8 559.283 273.788C559.889 275.777 560.111 278.107 559.949 280.778C559.786 284.184 559.095 286.855 557.883 288.801C556.671 290.747 555.374 291.643 553.991 291.472C548.802 290.986 543.434 290.585 537.878 290.26C532.322 289.936 526.954 289.731 521.764 289.654C521.278 294.033 521.039 298.368 521.039 302.661C525.255 302.26 529.386 301.91 533.44 301.629C537.494 301.347 541.019 301.202 544.014 301.202C545.226 301.202 546.097 301.791 546.626 302.969C547.155 304.146 547.42 305.461 547.42 306.92C547.42 308.38 547.155 309.694 546.626 310.872C546.097 312.05 545.388 312.638 544.501 312.638C540.857 312.638 537.101 312.698 533.252 312.818C529.403 312.937 525.332 313.202 521.03 313.611L521.398 322.607C523.83 322.53 526.365 322.368 528.993 322.12C531.622 321.881 534.225 321.617 536.777 321.327C539.329 321.045 541.761 320.721 544.074 320.354C546.387 319.987 548.469 319.603 550.339 319.202C551.55 318.963 552.506 319.347 553.198 320.354C553.889 321.369 554.333 322.564 554.538 323.938C554.742 325.321 554.742 326.712 554.538 328.129C554.333 329.546 553.949 330.501 553.385 330.988C552.976 331.398 551.781 331.756 549.801 332.08C547.812 332.405 545.44 332.712 542.692 332.994C539.935 333.275 536.931 333.523 533.696 333.719C530.453 333.924 527.389 334.103 524.513 334.265C521.636 334.427 519.085 334.547 516.848 334.632C514.621 334.718 513.144 334.718 512.41 334.632C510.14 334.47 508.356 334.086 507.059 333.48C505.762 332.874 504.994 331.884 504.746 330.501C504.584 329.691 504.507 328.351 504.507 326.49C504.507 324.63 504.567 322.462 504.687 319.987C504.806 317.512 504.968 314.857 505.173 312.024C505.378 309.19 505.6 306.391 505.839 303.634C506.086 300.878 506.342 298.326 506.632 295.97C506.914 293.623 507.221 291.635 507.546 290.013C506.735 290.098 505.967 290.175 505.233 290.26C504.507 290.346 503.816 290.423 503.167 290.499C502.194 290.662 501.426 290.26 500.854 289.287C500.283 288.315 499.864 287.137 499.574 285.763C499.293 284.389 499.13 282.946 499.088 281.444C499.045 279.942 499.028 278.704 499.028 277.74C499.028 276.776 499.105 275.632 499.276 274.335C499.438 273.037 499.719 271.783 500.129 270.562C500.53 269.35 501.085 268.309 501.768 267.464C502.459 266.611 503.372 266.15 504.507 266.065C506.368 265.988 508.74 265.945 511.617 265.945C514.493 265.945 517.591 266.005 520.92 266.124C524.24 266.244 527.67 266.432 531.195 266.671C534.72 266.91 538.066 267.2 541.224 267.524C544.381 267.848 547.258 268.215 549.852 268.616C552.455 269.026 554.478 269.47 555.937 269.956Z" fill="black"/>
</g>
<defs>
<linearGradient id="paint0_linear_106_27" x1="323.76" y1="41" x2="323.76" y2="458.731" gradientUnits="userSpaceOnUse">
<stop stop-color="#7A68FF" stop-opacity="0.36"/>
<stop offset="0.658654" stop-color="#6971F3" stop-opacity="0"/>
<stop offset="0.8125" stop-color="#6176ED" stop-opacity="0"/>
<stop offset="1" stop-color="#00ABA8" stop-opacity="0.36"/>
</linearGradient>
<linearGradient id="paint1_linear_106_27" x1="21" y1="299.594" x2="618.36" y2="299.594" gradientUnits="userSpaceOnUse">
<stop stop-color="#7A68FF" stop-opacity="0.36"/>
<stop offset="0.192308" stop-color="#4C81DE"/>
<stop offset="0.514423" stop-color="#189EB9"/>
<stop offset="1" stop-color="#00ABA8" stop-opacity="0.36"/>
</linearGradient>
<linearGradient id="paint2_linear_106_27" x1="324.59" y1="370.088" x2="324.59" y2="446.168" gradientUnits="userSpaceOnUse">
<stop stop-color="#7A68FF"/>
<stop offset="1" stop-color="#00ABA8"/>
</linearGradient>
<linearGradient id="paint3_linear_106_27" x1="319.81" y1="465.188" x2="319.81" y2="540.218" gradientUnits="userSpaceOnUse">
<stop stop-color="#00ABA8"/>
<stop offset="1" stop-color="#7A68FF"/>
</linearGradient>
<linearGradient id="paint4_linear_106_27" x1="319.275" y1="81.9781" x2="319.275" y2="320.248" gradientUnits="userSpaceOnUse">
<stop stop-color="#00ABA8"/>
<stop offset="0.822115" stop-color="#537EE3" stop-opacity="0"/>
<stop offset="1" stop-color="#6176ED" stop-opacity="0"/>
</linearGradient>
<linearGradient id="paint5_linear_106_27" x1="482.61" y1="220.81" x2="159.6" y2="220.81" gradientUnits="userSpaceOnUse">
<stop stop-color="#00ABA8"/>
<stop offset="1" stop-color="#7A68FF" stop-opacity="0.8"/>
</linearGradient>
</defs>
</svg>
